<?xml version="1.0" encoding="UTF-8" standalone="no"?>
<!-- Created with Inkscape (http://www.inkscape.org/) -->

<svg
   version="1.1"
   id="svg2"
   width="800"
   height="800"
   viewBox="0 0 800 800"
   sodipodi:docname="party_popper.eps"
   xmlns:inkscape="http://www.inkscape.org/namespaces/inkscape"
   xmlns:sodipodi="http://sodipodi.sourceforge.net/DTD/sodipodi-0.dtd"
   xmlns="http://www.w3.org/2000/svg"
   xmlns:svg="http://www.w3.org/2000/svg">
  <defs
     id="defs6">
    <clipPath
       clipPathUnits="userSpaceOnUse"
       id="clipPath24">
      <path
         d="m 3848.11,1880.9 c -87.18,-87.07 -285.99,-62.82 -545.78,66.71 -273.09,136.19 -583.42,371.11 -873.71,661.39 -290.28,290.18 -525.1,600.52 -661.29,873.71 -129.54,259.69 -153.88,458.6 -66.81,545.67 87.07,87.07 285.98,62.72 545.77,-66.81 273.09,-136.19 583.43,-371.01 873.71,-661.29 290.27,-290.28 525.1,-600.62 661.29,-873.71 129.53,-259.69 153.89,-458.6 66.82,-545.67 z"
         id="path22" />
    </clipPath>
    <linearGradient
       x1="0"
       y1="0"
       x2="1"
       y2="0"
       gradientUnits="userSpaceOnUse"
       gradientTransform="matrix(671.663,716.441,716.441,-671.663,2438.48,2596.42)"
       spreadMethod="pad"
       id="linearGradient30">
      <stop
         style="stop-opacity:1;stop-color:#66423b"
         offset="0"
         id="stop26" />
      <stop
         style="stop-opacity:1;stop-color:#422e2b"
         offset="1"
         id="stop28" />
    </linearGradient>
  </defs>
  <sodipodi:namedview
     id="namedview4"
     pagecolor="#ffffff"
     bordercolor="#000000"
     borderopacity="0.25"
     inkscape:showpageshadow="2"
     inkscape:pageopacity="0.0"
     inkscape:pagecheckerboard="0"
     inkscape:deskcolor="#d1d1d1" />
  <g
     id="g8"
     inkscape:groupmode="layer"
     inkscape:label="ink_ext_XXXXXX"
     transform="matrix(1.3333333,0,0,-1.3333333,0,800)">
    <g
       id="g10"
       transform="scale(0.1)">
      <path
         d="M 0,6000 H 6000 V 0 H 0 v 6000"
         style="fill:#ffffff;fill-opacity:1;fill-rule:nonzero;stroke:none"
         id="path12" />
      <path
         d="M 3861.5,1719.47 805.859,770.48 C 673.359,729.352 549.031,853.672 590.168,986.172 L 1539.16,4041.82 3861.5,1719.47"
         style="fill:#f8cc2a;fill-opacity:1;fill-rule:nonzero;stroke:none"
         id="path14" />
      <path
         d="m 3955.29,1773.63 c -222.71,-222.72 -932.01,125.48 -1584.25,777.73 -652.24,652.23 -1000.44,1361.53 -777.72,1584.25 222.72,222.71 932.01,-125.49 1584.25,-777.73 652.24,-652.25 1000.44,-1361.53 777.72,-1584.25"
         style="fill:#fbd54d;fill-opacity:1;fill-rule:nonzero;stroke:none"
         id="path16" />
      <g
         id="g18">
        <g
           id="g20"
           clip-path="url(#clipPath24)">
          <path
             d="m 3848.11,1880.9 c -87.18,-87.07 -285.99,-62.82 -545.78,66.71 -273.09,136.19 -583.42,371.11 -873.71,661.39 -290.28,290.18 -525.1,600.52 -661.29,873.71 -129.54,259.69 -153.88,458.6 -66.81,545.67 87.07,87.07 285.98,62.72 545.77,-66.81 273.09,-136.19 583.43,-371.01 873.71,-661.29 290.27,-290.28 525.1,-600.62 661.29,-873.71 129.53,-259.69 153.89,-458.6 66.82,-545.67"
             style="fill:url(#linearGradient30);fill-opacity:1;fill-rule:nonzero;stroke:none"
             id="path32" />
        </g>
      </g>
      <path
         d="m 3422.99,1583.29 -591.42,-183.66 c -131.24,46.89 -260.28,103.23 -386.9,168.8 -275.61,142.75 -540.78,330.15 -788.16,556.9 -40.15,36.82 -84.11,78.69 -130.88,125.47 -120.92,120.93 -260.34,274.63 -399.99,459.43 l 121.56,391.41 c 222.03,-333.79 461.74,-582.27 629.56,-736.02 472.33,-433.05 991.91,-695.81 1546.23,-782.33"
         style="fill:#3b59b1;fill-opacity:1;fill-rule:nonzero;stroke:none"
         id="path34" />
      <path
         d="m 2436.6,1276.92 -466.29,-144.83 c -266.62,141.14 -523.21,323.99 -763.15,543.89 -40.15,36.81 -84.1,78.7 -130.89,125.48 -55.19,55.18 -114.122,117.11 -175.247,185.73 l 114.477,368.64 c 151.74,-187.92 298.36,-335.46 411.9,-439.56 316.45,-290.18 654.09,-503.85 1009.2,-639.35"
         style="fill:#3b59b1;fill-opacity:1;fill-rule:nonzero;stroke:none"
         id="path36" />
      <path
         d="M 1592.28,1014.69 1183.03,887.602 C 1036.7,987.961 894.52,1101.33 757.813,1226.63 c -22.813,20.97 -46.836,43.5 -71.954,67.69 l 109.278,351.82 c 66.484,-69.48 128.535,-129.33 182.91,-179.23 196.853,-180.48 401.883,-331.36 614.233,-452.22"
         style="fill:#3b59b1;fill-opacity:1;fill-rule:nonzero;stroke:none"
         id="path38" />
      <path
         d="m 2360,3654.52 -144.7,144.7 c 229.79,229.79 361.13,525.07 390.34,877.64 22.23,268.22 -26.16,470.57 -26.65,472.58 l 198.67,49.07 c 2.3,-9.31 56.18,-231.2 32.54,-530.99 -31.53,-399.72 -187.2,-750.01 -450.2,-1013"
         style="fill:#ee203b;fill-opacity:1;fill-rule:nonzero;stroke:none"
         id="path40" />
      <path
         d="m 3510.38,2359.44 -144.7,144.7 c 283.35,283.35 684.24,425.87 1159.34,412.16 352.69,-10.18 621.01,-101.75 632.26,-105.65 l -66.94,-193.38 33.47,96.69 -33.37,-96.72 c -2.5,0.85 -254.47,86.27 -576.98,94.66 -420.76,10.96 -758.25,-107.63 -1003.08,-352.46"
         style="fill:#3b59b1;fill-opacity:1;fill-rule:nonzero;stroke:none"
         id="path42" />
      <path
         d="m 2802.36,3861.14 c 74.15,123.29 171.67,155.49 242.87,178.99 60.27,19.89 96.65,31.9 131.67,90.14 35.04,58.24 28.6,95.99 17.92,158.55 -12.59,73.91 -29.86,175.14 44.3,298.43 74.16,123.3 171.68,155.49 242.88,179.01 60.28,19.9 96.64,31.91 131.69,90.16 35.04,58.25 28.6,96.01 17.94,158.58 -12.61,73.92 -29.86,175.15 44.3,298.45 l 175.36,-105.48 c -35.04,-58.26 -28.59,-96.02 -17.93,-158.58 12.6,-73.92 29.85,-175.16 -44.31,-298.45 -74.17,-123.29 -171.68,-155.49 -242.89,-179 -60.26,-19.9 -96.64,-31.92 -131.68,-90.17 -35.03,-58.23 -28.59,-96 -17.93,-158.55 12.61,-73.91 29.88,-175.14 -44.28,-298.43 -74.16,-123.29 -171.68,-155.48 -242.88,-178.99 -60.26,-19.89 -96.64,-31.9 -131.67,-90.14 l -175.36,105.48"
         style="fill:#f04425;fill-opacity:1;fill-rule:nonzero;stroke:none"
         id="path44" />
      <path
         d="m 3646.02,3312.68 -100.28,178.39 c 129.26,72.65 233.21,51.75 309.11,36.5 65.77,-13.22 105.45,-21.2 168.53,14.25 63.07,35.44 76.88,73.49 99.76,136.54 26.43,72.78 62.62,172.44 191.87,245.09 129.26,72.65 233.22,51.76 309.13,36.5 65.76,-13.21 105.46,-21.19 168.55,14.27 63.08,35.45 76.9,73.51 99.8,136.56 26.44,72.77 62.63,172.45 191.89,245.1 l 100.26,-178.4 c -63.09,-35.46 -76.91,-73.51 -99.81,-136.56 -26.42,-72.78 -62.62,-172.45 -191.88,-245.1 -129.26,-72.65 -233.22,-51.75 -309.13,-36.5 -65.76,13.21 -105.46,21.2 -168.55,-14.26 -63.06,-35.45 -76.88,-73.5 -99.76,-136.54 -26.44,-72.78 -62.62,-172.45 -191.87,-245.1 -129.25,-72.64 -233.21,-51.74 -309.11,-36.48 -65.75,13.21 -105.44,21.18 -168.51,-14.26"
         style="fill:#4c45a4;fill-opacity:1;fill-rule:nonzero;stroke:none"
         id="path46" />
      <path
         d="m 5015.28,3328.94 c -39.96,-39.96 -104.74,-39.96 -144.7,0 -39.95,39.96 -39.95,104.75 0,144.7 39.96,39.96 104.74,39.96 144.7,0 39.95,-39.95 39.95,-104.74 0,-144.7"
         style="fill:#4c45a4;fill-opacity:1;fill-rule:nonzero;stroke:none"
         id="path48" />
      <path
         d="m 4559.47,2135.16 c -39.96,-39.96 -104.74,-39.96 -144.7,0 -39.96,39.95 -39.96,104.73 0,144.69 39.96,39.96 104.74,39.96 144.7,0 39.95,-39.96 39.95,-104.74 0,-144.69"
         style="fill:#ee203b;fill-opacity:1;fill-rule:nonzero;stroke:none"
         id="path50" />
      <path
         d="m 5500.03,3003.36 c -39.96,-39.95 -104.75,-39.95 -144.7,0 -39.96,39.96 -39.96,104.75 0,144.7 39.95,39.96 104.74,39.96 144.7,0 39.96,-39.95 39.96,-104.74 0,-144.7"
         style="fill:#3b59b1;fill-opacity:1;fill-rule:nonzero;stroke:none"
         id="path52" />
      <path
         d="m 4668,4414.2 c -39.96,-39.96 -104.75,-39.96 -144.71,0 -39.95,39.96 -39.95,104.75 0,144.71 39.96,39.95 104.75,39.95 144.71,0 39.96,-39.96 39.96,-104.75 0,-144.71"
         style="fill:#f04425;fill-opacity:1;fill-rule:nonzero;stroke:none"
         id="path54" />
      <path
         d="m 3163.1,5166.65 c -39.96,-39.95 -104.74,-39.95 -144.7,0 -39.96,39.96 -39.96,104.74 0,144.7 39.96,39.96 104.74,39.96 144.7,0 39.96,-39.96 39.96,-104.74 0,-144.7"
         style="fill:#3b59b1;fill-opacity:1;fill-rule:nonzero;stroke:none"
         id="path56" />
      <path
         d="m 3872.14,4283.97 c -39.96,-39.96 -104.75,-39.96 -144.71,0 -39.95,39.96 -39.95,104.75 0,144.7 39.96,39.96 104.75,39.96 144.71,0 39.96,-39.95 39.96,-104.74 0,-144.7"
         style="fill:#f8cc2a;fill-opacity:1;fill-rule:nonzero;stroke:none"
         id="path58" />
      <path
         d="m 3097.98,3017.83 c -39.95,-39.96 -104.74,-39.96 -144.7,0 -39.96,39.96 -39.96,104.74 0,144.7 39.96,39.96 104.75,39.96 144.7,0 39.96,-39.96 39.96,-104.74 0,-144.7"
         style="fill:#f04425;fill-opacity:1;fill-rule:nonzero;stroke:none"
         id="path60" />
      <path
         d="m 2027.19,4681.9 c -39.95,-39.96 -104.74,-39.96 -144.7,0 -39.96,39.96 -39.96,104.75 0,144.7 39.96,39.96 104.75,39.96 144.7,0 39.96,-39.95 39.96,-104.74 0,-144.7"
         style="fill:#4c45a4;fill-opacity:1;fill-rule:nonzero;stroke:none"
         id="path62" />
    </g>
  </g>
</svg>
