<?xml version="1.0" encoding="UTF-8" standalone="no"?>
<!DOCTYPE svg PUBLIC "-//W3C//DTD SVG 1.1//EN" "http://www.w3.org/Graphics/SVG/1.1/DTD/svg11.dtd">
<svg xmlns="http://www.w3.org/2000/svg" version="1.1" viewBox="0 0 330 292">
<path fill="rgb(0,0,0)" fill-opacity="1.000" d="M 190.65 38.96 Q 191.32 44.67 187.57 49.85 Q 183.89 54.93 177.39 56.25 A 0.74 0.72 -3.7 0 0 176.80 56.91 L 173.74 101.60 A 0.58 0.56 -83.9 0 0 174.21 102.20 L 197.57 106.08 A 0.69 0.69 18.2 0 0 198.31 105.71 Q 202.69 96.80 211.23 96.00 Q 217.06 95.45 221.83 98.44 Q 227.10 101.75 228.25 108.25 Q 229.46 115.12 225.42 121.02 A 0.88 0.85 -50.7 0 0 225.51 122.13 L 230.38 126.91 A 0.55 0.54 -43.8 0 0 231.12 126.92 Q 240.77 118.49 253.22 121.68 A 0.75 0.73 14.8 0 0 254.12 121.17 L 259.06 103.79 A 0.64 0.60 21.9 0 0 258.73 103.08 Q 254.22 100.66 252.85 96.23 Q 251.54 92.01 253.33 87.87 Q 255.44 83.00 261.06 81.56 Q 266.81 80.09 271.48 84.53 Q 274.57 87.47 274.95 91.35 Q 275.30 94.92 273.34 98.36 Q 270.05 104.14 262.43 104.19 A 0.68 0.66 8.0 0 0 261.78 104.66 L 256.55 122.25 A 0.67 0.65 23.0 0 0 256.87 123.00 Q 267.69 129.01 269.50 139.72 Q 270.71 146.94 267.67 153.47 Q 264.51 160.26 257.56 164.06 Q 249.96 168.23 241.05 165.83 Q 232.19 163.44 227.26 155.77 A 0.35 0.35 62.6 0 0 226.82 155.63 L 187.01 173.11 A 0.72 0.58 77.4 0 0 186.67 173.80 L 187.24 180.16 A 0.70 0.63 -88.1 0 0 187.75 180.77 L 262.07 195.69 A 0.91 0.90 -71.0 0 0 263.05 195.21 Q 267.60 186.27 276.44 185.88 Q 282.90 185.60 287.90 189.30 Q 293.37 193.36 294.00 200.75 Q 294.48 206.42 291.18 210.99 Q 288.19 215.14 283.20 217.09 Q 275.21 220.22 267.81 214.69 Q 262.08 210.40 261.47 202.07 A 0.68 0.66 -86.7 0 0 260.94 201.46 L 186.81 186.66 A 0.64 0.62 -72.0 0 0 186.11 187.03 Q 181.22 198.00 168.07 201.37 A 0.76 0.73 -8.3 0 0 167.50 202.11 L 168.41 236.06 A 0.64 0.61 5.3 0 0 168.92 236.65 Q 178.99 238.54 181.95 247.13 Q 183.65 252.07 182.21 256.91 Q 180.64 262.20 176.03 265.23 Q 172.19 267.76 167.53 267.88 Q 162.52 268.00 158.61 265.24 Q 153.53 261.66 152.15 255.64 Q 150.71 249.40 154.88 243.32 Q 158.53 237.98 164.66 236.98 A 1.01 1.00 -5.3 0 0 165.51 235.97 L 164.72 202.10 A 0.89 0.88 3.4 0 0 163.95 201.24 Q 156.65 200.26 151.61 196.00 Q 146.65 191.81 144.83 185.22 Q 141.95 174.76 149.40 164.50 A 1.03 1.02 42.5 0 0 149.34 163.22 L 145.29 158.63 A 1.44 1.44 58.5 0 0 143.68 158.24 Q 132.62 162.63 127.31 152.94 Q 124.88 148.48 127.52 143.23 Q 130.37 137.55 136.75 136.75 Q 141.07 136.21 144.43 138.76 Q 147.47 141.08 148.72 144.82 Q 150.51 150.19 146.80 155.34 A 0.66 0.61 -48.7 0 0 146.82 156.15 L 151.63 161.40 A 0.64 0.60 -37.4 0 0 152.42 161.48 Q 157.55 158.19 163.57 157.14 A 0.62 0.61 -3.0 0 0 164.09 156.57 L 167.00 107.24 A 0.53 0.52 6.7 0 0 166.56 106.69 L 129.28 100.34 A 1.75 1.75 -68.4 0 0 127.53 101.10 Q 122.84 108.27 114.47 106.13 A 0.67 0.66 23.4 0 0 113.73 106.42 L 97.00 134.06 A 0.60 0.59 35.8 0 0 97.13 134.82 Q 103.12 139.98 104.00 147.50 Q 105.34 158.98 96.44 166.50 A 0.56 0.55 -36.8 0 0 96.33 167.23 L 117.41 199.89 A 0.65 0.64 -25.5 0 0 118.16 200.15 Q 124.58 198.08 129.18 201.38 Q 133.36 204.39 134.04 209.98 Q 134.81 216.39 129.35 220.17 Q 126.02 222.48 122.22 222.36 Q 117.85 222.23 114.88 219.27 Q 111.49 215.88 111.24 211.43 Q 111.00 206.89 114.66 202.62 A 0.97 0.97 -41.7 0 0 114.73 201.45 L 93.76 169.51 A 0.54 0.54 60.4 0 0 93.08 169.32 Q 84.56 173.32 76.22 170.42 A 0.69 0.68 -62.1 0 0 75.45 170.66 L 66.22 182.96 A 0.84 0.82 -45.1 0 0 66.21 183.95 Q 73.50 193.94 67.06 203.81 Q 64.87 207.17 60.93 208.86 Q 57.37 210.39 53.40 210.17 Q 48.39 209.90 44.54 206.91 Q 40.92 204.11 39.33 199.58 Q 37.51 194.43 39.24 189.46 Q 41.42 183.17 47.19 180.18 Q 53.08 177.14 60.53 179.59 A 0.74 0.74 -63.2 0 0 61.38 179.31 L 69.79 167.39 A 0.72 0.71 40.3 0 0 69.71 166.47 Q 58.77 155.40 64.69 141.01 A 0.85 0.83 -62.9 0 0 64.37 139.98 L 54.67 133.75 A 0.65 0.62 -50.2 0 0 53.89 133.84 Q 46.76 140.54 38.94 135.31 Q 34.34 132.24 34.09 127.02 Q 33.86 122.47 36.77 118.67 Q 40.32 114.03 46.15 114.56 Q 51.87 115.08 54.99 119.33 Q 58.34 123.90 56.40 130.53 A 0.66 0.65 24.8 0 0 56.68 131.27 L 66.16 137.50 A 0.75 0.75 38.2 0 0 67.12 137.39 Q 77.17 126.48 91.21 131.27 A 0.64 0.62 24.9 0 0 91.95 131.01 L 109.13 103.48 A 0.71 0.70 -46.8 0 0 109.11 102.70 Q 104.38 96.12 108.83 89.03 A 1.19 1.19 -50.0 0 0 108.71 87.59 L 90.66 67.81 A 0.70 0.69 -33.5 0 0 89.86 67.65 Q 80.23 71.96 74.62 64.74 Q 72.34 61.82 72.09 58.69 Q 71.80 55.21 73.74 51.97 Q 77.31 46.00 84.00 46.25 Q 90.38 46.49 93.51 52.40 Q 96.97 58.94 92.57 64.51 A 0.71 0.71 -47.7 0 0 92.61 65.43 L 110.97 85.37 A 0.79 0.79 -30.8 0 0 111.81 85.58 Q 125.96 80.62 129.38 93.77 A 0.79 0.75 86.8 0 0 129.99 94.34 L 167.70 101.10 A 0.45 0.45 -82.5 0 0 168.23 100.69 L 171.28 56.69 A 0.68 0.67 12.7 0 0 170.84 56.01 Q 161.55 52.37 159.98 43.68 Q 158.83 37.34 162.02 32.27 Q 164.38 28.52 168.52 26.59 Q 172.38 24.80 176.70 25.18 Q 182.27 25.68 186.04 29.49 Q 190.00 33.50 190.65 38.96 Z M 184.40 40.06 A 9.80 9.80 0 0 0 174.60 30.26 A 9.80 9.80 0 0 0 164.80 40.06 A 9.80 9.80 0 0 0 174.60 49.86 A 9.80 9.80 0 0 0 184.40 40.06 Z M 89.24 57.46 A 5.72 5.72 0 0 0 83.52 51.74 A 5.72 5.72 0 0 0 77.80 57.46 A 5.72 5.72 0 0 0 83.52 63.18 A 5.72 5.72 0 0 0 89.24 57.46 Z M 269.08 92.46 A 5.62 5.62 0 0 0 263.46 86.84 A 5.62 5.62 0 0 0 257.84 92.46 A 5.62 5.62 0 0 0 263.46 98.08 A 5.62 5.62 0 0 0 269.08 92.46 Z M 123.75 95.38 A 5.59 5.59 0 0 0 118.16 89.79 A 5.59 5.59 0 0 0 112.57 95.38 A 5.59 5.59 0 0 0 118.16 100.97 A 5.59 5.59 0 0 0 123.75 95.38 Z M 222.71 111.56 A 10.00 10.00 0 0 0 212.71 101.56 A 10.00 10.00 0 0 0 202.71 111.56 A 10.00 10.00 0 0 0 212.71 121.56 A 10.00 10.00 0 0 0 222.71 111.56 Z M 207.23 125.89 Q 198.23 122.51 196.75 112.07 A 0.70 0.69 -88.9 0 0 196.19 111.48 L 174.05 107.41 A 0.81 0.80 7.1 0 0 173.10 108.14 L 169.71 156.83 A 0.86 0.86 9.3 0 0 170.35 157.72 Q 179.06 160.00 183.88 167.29 A 0.62 0.61 -28.3 0 0 184.63 167.51 L 224.28 150.29 A 0.63 0.62 72.6 0 0 224.65 149.58 Q 222.28 138.51 228.49 129.61 A 0.63 0.61 -50.2 0 0 228.43 128.82 L 223.37 123.84 A 0.63 0.60 -39.2 0 0 222.59 123.78 Q 219.07 126.14 215.04 126.75 Q 211.13 127.35 207.23 125.89 Z M 51.63 125.91 A 5.75 5.75 0 0 0 45.88 120.16 A 5.75 5.75 0 0 0 40.13 125.91 A 5.75 5.75 0 0 0 45.88 131.66 A 5.75 5.75 0 0 0 51.63 125.91 Z M 264.06 143.59 A 17.30 17.30 0 0 0 246.76 126.29 A 17.30 17.30 0 0 0 229.46 143.59 A 17.30 17.30 0 0 0 246.76 160.89 A 17.30 17.30 0 0 0 264.06 143.59 Z M 98.35 150.41 A 14.87 14.87 0 0 0 83.48 135.54 A 14.87 14.87 0 0 0 68.61 150.41 A 14.87 14.87 0 0 0 83.48 165.28 A 14.87 14.87 0 0 0 98.35 150.41 Z M 143.54 148.23 A 5.75 5.75 0 0 0 137.79 142.48 A 5.75 5.75 0 0 0 132.04 148.23 A 5.75 5.75 0 0 0 137.79 153.98 A 5.75 5.75 0 0 0 143.54 148.23 Z M 181.56 178.99 A 16.09 16.09 0 0 0 165.47 162.90 A 16.09 16.09 0 0 0 149.38 178.99 A 16.09 16.09 0 0 0 165.47 195.08 A 16.09 16.09 0 0 0 181.56 178.99 Z M 64.62 193.77 A 10.05 10.05 0 0 0 54.57 183.72 A 10.05 10.05 0 0 0 44.52 193.77 A 10.05 10.05 0 0 0 54.57 203.82 A 10.05 10.05 0 0 0 64.62 193.77 Z M 288.14 201.57 A 10.37 10.37 0 0 0 277.77 191.20 A 10.37 10.37 0 0 0 267.40 201.57 A 10.37 10.37 0 0 0 277.77 211.94 A 10.37 10.37 0 0 0 288.14 201.57 Z M 128.15 211.17 A 5.74 5.74 0 0 0 122.41 205.43 A 5.74 5.74 0 0 0 116.67 211.17 A 5.74 5.74 0 0 0 122.41 216.91 A 5.74 5.74 0 0 0 128.15 211.17 Z M 177.15 252.34 A 9.82 9.82 0 0 0 167.33 242.52 A 9.82 9.82 0 0 0 157.51 252.34 A 9.82 9.82 0 0 0 167.33 262.16 A 9.82 9.82 0 0 0 177.15 252.34 Z"/>
<circle fill="rgb(0,0,0)" fill-opacity="0.000" cx="174.60" cy="40.06" r="9.80"/>
<circle fill="rgb(0,0,0)" fill-opacity="0.000" cx="83.52" cy="57.46" r="5.72"/>
<circle fill="rgb(0,0,0)" fill-opacity="0.000" cx="263.46" cy="92.46" r="5.62"/>
<circle fill="rgb(0,0,0)" fill-opacity="0.000" cx="118.16" cy="95.38" r="5.59"/>
<circle fill="rgb(0,0,0)" fill-opacity="0.000" cx="212.71" cy="111.56" r="10.00"/>
<circle fill="rgb(0,0,0)" fill-opacity="0.000" cx="45.88" cy="125.91" r="5.75"/>
<circle fill="rgb(0,0,0)" fill-opacity="0.000" cx="246.76" cy="143.59" r="17.30"/>
<circle fill="rgb(0,0,0)" fill-opacity="0.000" cx="83.48" cy="150.41" r="14.87"/>
<circle fill="rgb(0,0,0)" fill-opacity="0.000" cx="137.79" cy="148.23" r="5.75"/>
<circle fill="rgb(0,0,0)" fill-opacity="0.000" cx="165.47" cy="178.99" r="16.09"/>
<circle fill="rgb(0,0,0)" fill-opacity="0.000" cx="54.57" cy="193.77" r="10.05"/>
<circle fill="rgb(0,0,0)" fill-opacity="0.000" cx="277.77" cy="201.57" r="10.37"/>
<circle fill="rgb(0,0,0)" fill-opacity="0.000" cx="122.41" cy="211.17" r="5.74"/>
<circle fill="rgb(0,0,0)" fill-opacity="0.000" cx="167.33" cy="252.34" r="9.82"/>
</svg>