<svg xmlns="http://www.w3.org/2000/svg" width="640" height="480" viewBox="0 0 480 480" xml:space="preserve"><g style="stroke:none;stroke-width:0;stroke-dasharray:none;stroke-linecap:butt;stroke-linejoin:miter;stroke-miterlimit:10;fill:none;fill-rule:nonzero;opacity:1"><path d="M165.224 43.758a21.136 21.136 0 0 0-14.919-14.919c-13.159-3.526-65.93-3.526-65.93-3.526s-52.77 0-65.93 3.526A21.136 21.136 0 0 0 3.526 43.758C0 56.918 0 84.375 0 84.375s0 27.457 3.526 40.617a21.136 21.136 0 0 0 14.919 14.919c13.159 3.526 65.93 3.526 65.93 3.526s52.77 0 65.93-3.526a21.136 21.136 0 0 0 14.919-14.919c3.526-13.159 3.526-40.617 3.526-40.617s0-27.457-3.526-40.617z" style="stroke:none;stroke-width:1;stroke-dasharray:none;stroke-linecap:butt;stroke-linejoin:miter;stroke-miterlimit:10;fill:red;fill-rule:nonzero;opacity:1" transform="matrix(2.81 0 0 2.81 1.407 1.407)"/><path style="stroke:none;stroke-width:1;stroke-dasharray:none;stroke-linecap:butt;stroke-linejoin:miter;stroke-miterlimit:10;fill:#fff;fill-rule:nonzero;opacity:1" d="m67.5 109.688 43.837-25.313L67.5 59.063z" transform="matrix(2.81 0 0 2.81 1.407 1.407)"/></g></svg>