<?xml version="1.0" standalone="no"?>
<!DOCTYPE svg PUBLIC "-//W3C//DTD SVG 20010904//EN"
 "http://www.w3.org/TR/2001/REC-SVG-20010904/DTD/svg10.dtd">
<svg version="1.0" xmlns="http://www.w3.org/2000/svg"
 width="834.000000pt" height="356.000000pt" viewBox="0 0 834.000000 356.000000"
 preserveAspectRatio="xMidYMid meet">

<g transform="translate(0.000000,356.000000) scale(0.100000,-0.100000)"
fill="#000000" stroke="none">
<path d="M1820 3290 c-855 -93 -1571 -171 -1590 -174 -43 -7 -60 -29 -60 -75
1 -20 96 -491 213 -1048 159 -756 218 -1017 232 -1033 17 -19 29 -20 283 -20
207 0 263 -3 260 -12 -3 -7 -34 -129 -69 -271 -60 -242 -63 -259 -49 -285 12
-20 25 -28 53 -30 35 -3 67 20 618 442 l581 446 427 0 c411 0 429 1 446 19 14
16 44 219 161 1083 79 585 144 1067 144 1071 0 18 -51 57 -72 56 -13 -1 -723
-77 -1578 -169z"/>
<path d="M6860 3020 l0 -410 70 0 70 0 0 36 0 36 35 -30 c84 -74 220 -69 311
11 64 57 87 106 92 203 5 92 -5 130 -50 198 -41 63 -102 97 -182 103 -72 6
-123 -7 -166 -44 l-30 -25 0 166 0 166 -75 0 -75 0 0 -410z m377 -12 c70 -64
70 -182 -1 -247 -20 -19 -40 -26 -84 -29 -52 -4 -61 -1 -90 23 -18 15 -39 40
-47 56 -33 62 -6 182 48 210 59 32 131 27 174 -13z"/>
<path d="M4112 3378 c3 -7 67 -183 143 -390 l138 -378 86 0 87 0 142 383 c78
210 142 385 142 390 0 4 -38 7 -84 7 l-84 0 -98 -290 c-55 -159 -101 -290
-104 -290 -3 0 -50 131 -104 290 l-99 290 -85 0 c-63 0 -83 -3 -80 -12z"/>
<path d="M5110 3161 c-131 -43 -200 -135 -200 -267 0 -128 44 -205 145 -255
115 -57 247 -49 343 21 131 95 147 312 31 428 -56 57 -103 75 -204 78 -49 2
-101 0 -115 -5z m187 -141 c40 -29 54 -64 54 -133 0 -101 -53 -160 -145 -160
-65 0 -98 21 -126 77 -40 83 -18 178 50 224 45 31 120 27 167 -8z"/>
<path d="M5759 3152 c-113 -46 -179 -142 -179 -258 0 -175 115 -287 295 -287
90 0 133 14 190 65 36 31 75 94 75 121 0 17 -133 32 -138 16 -10 -28 -58 -70
-88 -78 -134 -37 -229 113 -158 250 45 88 186 92 230 7 l16 -31 65 6 c36 4 68
9 71 11 8 9 -17 67 -47 104 -45 57 -110 85 -206 89 -61 2 -91 -1 -126 -15z"/>
<path d="M6356 3156 c-22 -8 -51 -23 -65 -34 -25 -18 -75 -101 -66 -110 4 -4
130 -32 130 -29 0 1 7 15 15 32 32 62 155 69 182 9 20 -43 1 -56 -124 -90 -64
-16 -127 -38 -142 -48 -44 -28 -66 -74 -66 -138 0 -49 4 -62 30 -91 30 -34 84
-57 137 -57 46 0 128 28 148 50 21 24 35 18 35 -16 0 -23 2 -24 76 -24 l76 0
-7 38 c-4 20 -10 120 -14 222 -7 211 -15 237 -86 274 -51 27 -200 34 -259 12z
m210 -313 c-2 -10 -7 -33 -11 -51 -15 -72 -135 -114 -177 -62 -38 47 -15 75
88 105 97 29 107 30 100 8z"/>
<path d="M7550 2953 c0 -183 3 -213 19 -250 48 -105 212 -135 325 -58 l36 24
0 -29 0 -30 75 0 75 0 0 275 0 275 -74 0 -74 0 -4 -177 c-3 -153 -6 -182 -22
-206 -25 -37 -49 -49 -103 -49 -36 0 -51 6 -72 26 -26 26 -26 27 -29 216 l-3
190 -75 0 -74 0 0 -207z"/>
<path d="M6816 2309 c-215 -28 -341 -101 -410 -238 -42 -82 -56 -161 -56 -318
l0 -143 -140 0 -140 0 0 -150 0 -150 140 0 140 0 0 -560 0 -560 195 0 195 0 0
560 0 560 155 0 155 0 0 150 0 150 -157 0 -156 0 6 118 c4 67 13 134 21 154
32 77 115 118 236 118 l50 0 0 160 0 160 -82 -1 c-46 -1 -114 -6 -152 -10z"/>
<path d="M5570 2281 c-109 -36 -170 -116 -170 -223 0 -67 26 -124 75 -167 57
-50 99 -64 171 -58 108 8 195 91 210 199 12 84 -37 180 -112 224 -46 27 -131
39 -174 25z"/>
<path d="M4110 1190 l0 -1000 525 0 525 0 0 180 0 180 -320 0 -320 0 0 820 0
820 -205 0 -205 0 0 -1000z"/>
<path d="M7420 1950 c0 -159 -12 -220 -52 -266 -46 -52 -82 -66 -180 -72 l-88
-5 0 -148 0 -149 140 0 140 0 0 -380 c0 -239 4 -399 11 -432 17 -79 74 -181
125 -223 90 -74 114 -80 352 -83 l212 -3 0 144 0 144 -95 6 c-112 6 -148 23
-179 82 -20 38 -21 57 -24 393 l-4 352 151 0 151 0 0 150 0 150 -150 0 -150 0
0 235 0 235 -180 0 -180 0 0 -130z"/>
<path d="M5420 900 l0 -710 205 0 205 0 0 710 0 710 -205 0 -205 0 0 -710z"/>
</g>
</svg>
